<?xml version="1.0" standalone="no"?>
<!DOCTYPE svg PUBLIC "-//W3C//DTD SVG 20010904//EN"
 "http://www.w3.org/TR/2001/REC-SVG-20010904/DTD/svg10.dtd">
<svg version="1.0" xmlns="http://www.w3.org/2000/svg"
 width="208.000000pt" height="208.000000pt" viewBox="0 0 208.000000 208.000000"
 preserveAspectRatio="xMidYMid meet">
<metadata>
Created by potrace 1.11, written by Peter Selinger 2001-2013
</metadata>
<g transform="translate(0.000000,208.000000) scale(0.100000,-0.100000)"
fill="#000000" stroke="none">
<path d="M943 1880 c-177 -27 -416 -149 -469 -239 -10 -17 -24 -31 -30 -31
-14 0 -81 -77 -86 -99 -2 -8 -11 -23 -20 -33 -10 -10 -18 -24 -18 -30 1 -8 6
-6 14 5 22 28 43 12 38 -31 -4 -35 -3 -36 12 -17 8 11 16 25 16 32 0 6 9 15
20 18 11 4 17 11 14 17 -5 7 -2 8 5 3 7 -4 11 -18 8 -32 -3 -15 1 -27 9 -30 8
-3 12 -8 10 -12 -7 -10 40 -62 48 -54 3 3 6 1 6 -6 0 -19 -41 -3 -67 25 -26
28 -30 29 -49 9 -9 -8 -12 -15 -8 -15 4 0 0 -8 -8 -17 -9 -10 -18 -29 -21 -43
-3 -14 -11 -46 -18 -71 -8 -32 -9 -70 -3 -125 9 -78 9 -79 26 -54 9 14 19 43
22 65 4 22 14 46 24 53 35 26 92 84 92 93 0 6 4 7 10 4 5 -3 18 -1 29 4 29 16
45 -12 46 -80 0 -61 3 -67 22 -48 16 16 33 2 33 -29 0 -15 5 -34 10 -42 8 -13
10 -12 10 3 0 9 5 17 10 17 6 0 10 -5 10 -10 0 -10 20 -31 67 -70 8 -7 14 -6
18 1 4 6 18 14 31 19 44 17 41 48 -13 132 -15 23 -15 30 -3 52 7 15 20 26 27
26 8 0 11 5 7 11 -3 6 0 15 7 20 21 13 35 11 21 -3 -15 -15 -16 -32 -2 -23 6
3 10 2 10 -4 0 -6 15 -3 35 7 34 17 45 32 24 32 -5 0 -7 5 -4 11 5 7 13 4 23
-9 14 -18 17 -18 44 -3 15 9 28 21 28 27 0 6 9 19 20 29 20 19 27 45 11 45
-14 0 -20 38 -7 44 6 2 3 5 -6 5 -9 1 -20 5 -23 11 -4 6 1 7 12 3 15 -6 16 -4
5 9 -11 14 -10 17 10 24 22 8 22 8 -7 14 -19 3 -31 12 -33 25 -3 11 -1 17 4
12 4 -4 15 0 25 9 28 25 82 6 94 -34 6 -21 16 -32 27 -32 23 0 23 18 1 42 -15
17 -15 20 11 47 17 18 34 27 46 24 25 -7 74 58 65 87 -3 11 -2 20 3 20 6 0 13
-12 16 -26 4 -15 10 -24 13 -21 10 11 -7 57 -22 57 -8 0 -15 5 -15 10 0 6 -11
10 -24 10 -14 0 -28 4 -31 10 -9 15 54 49 85 45 17 -2 30 1 34 10 3 8 13 11
26 8 17 -4 20 -11 16 -29 -6 -23 26 -74 46 -74 15 0 8 53 -9 72 -15 17 -15 18
0 18 10 0 17 7 17 16 0 30 -139 71 -265 78 -44 2 -98 6 -120 9 -22 3 -63 2
-92 -3z m-13 -155 c0 -2 -10 -10 -22 -16 -21 -11 -22 -11 -9 4 13 16 31 23 31
12z m-214 -92 c-7 -7 -56 17 -56 27 0 7 13 4 30 -6 16 -10 28 -19 26 -21z
m-156 -3 c-20 -13 -33 -13 -25 0 3 6 14 10 23 10 15 0 15 -2 2 -10z m35 -38
c-3 -3 -11 0 -18 7 -9 10 -8 11 6 5 10 -3 15 -9 12 -12z m-115 -23 c0 -5 -6
-9 -13 -9 -8 0 -14 6 -14 14 0 8 6 12 14 9 7 -3 13 -9 13 -14z m220 11 c11 -8
7 -9 -15 -4 -37 8 -45 14 -19 14 10 0 26 -5 34 -10z m-176 -18 c3 -5 -1 -9 -9
-9 -8 0 -12 4 -9 9 3 4 7 8 9 8 2 0 6 -4 9 -8z m-74 -31 c0 -14 -18 -23 -30
-16 -6 4 -8 11 -5 16 8 12 35 12 35 0z m247 -26 c0 -11 -4 -12 -14 -4 -7 6
-13 13 -13 15 0 2 6 4 13 4 8 0 14 -7 14 -15z m103 -137 c0 -4 -4 -8 -9 -8 -6
0 -12 4 -15 8 -3 5 1 9 9 9 8 0 15 -4 15 -9z m128 -8 c12 -19 11 -20 -8 -8
-20 13 -27 28 -12 28 4 0 13 -9 20 -20z m60 -8 c2 -7 -3 -12 -12 -12 -9 0 -16
7 -16 16 0 17 22 14 28 -4z m-329 -19 c-1 -18 -3 -21 -6 -10 -2 9 -9 15 -14
12 -5 -4 -9 -2 -9 4 0 8 9 14 28 20 1 1 1 -11 1 -26z m-196 -4 c4 -16 3 -18
-9 -8 -7 6 -11 15 -8 20 8 13 11 11 17 -12z m357 -7 c0 -15 2 -15 11 -2 7 10
9 11 7 2 -5 -20 -21 -16 -30 8 -5 13 -4 19 2 15 6 -3 10 -14 10 -23z m152 -19
c-2 -12 -8 -20 -13 -17 -5 3 -7 10 -4 15 4 5 1 9 -4 9 -6 0 -11 4 -11 9 0 6 8
9 18 8 14 -1 17 -7 14 -24z m-302 -12 c-6 -12 -15 -21 -21 -21 -6 0 -3 7 5 16
9 8 16 20 16 26 0 6 3 9 6 6 3 -4 1 -16 -6 -27z m-39 -72 c-21 -9 -29 0 -11
11 8 6 11 10 7 10 -5 0 -5 5 -1 12 5 8 10 6 14 -8 5 -13 2 -21 -9 -25z m-4
-34 c0 -8 -4 -12 -9 -9 -4 3 -8 9 -8 15 0 5 4 9 8 9 5 0 9 -7 9 -15z"/>
<path d="M1297 1595 c-4 -8 4 -15 19 -18 33 -6 39 7 10 21 -19 8 -25 8 -29 -3z"/>
<path d="M1300 1536 c0 -34 -33 -66 -66 -66 -13 0 -25 -4 -28 -9 -3 -5 10 -9
29 -8 19 1 35 4 35 8 0 4 6 7 13 6 36 -1 42 4 42 38 0 19 -6 40 -13 47 -9 9
-12 6 -12 -16z"/>
<path d="M301 1417 c-6 -8 -8 -17 -4 -21 4 -4 1 -11 -7 -16 -11 -7 -11 -10 -2
-10 7 0 17 11 23 24 9 19 14 22 24 13 9 -8 10 -16 3 -24 -5 -7 -8 -18 -5 -25
3 -8 9 -1 16 15 9 23 8 31 -3 43 -18 18 -30 18 -45 1z"/>
<path d="M1191 1414 c0 -11 3 -14 6 -6 3 7 2 16 -1 19 -3 4 -6 -2 -5 -13z"/>
<path d="M256 1313 c-6 -14 -5 -15 5 -6 7 7 10 15 7 18 -3 3 -9 -2 -12 -12z"/>
<path d="M1047 1283 c-4 -3 -7 -13 -7 -22 1 -13 3 -13 11 2 11 19 8 33 -4 20z"/>
<path d="M1050 1148 c0 -29 2 -31 15 -17 9 9 13 23 9 32 -10 28 -24 19 -24
-15z"/>
<path d="M380 1006 c0 -14 5 -26 10 -26 6 0 10 9 10 19 0 11 -4 23 -10 26 -6
4 -10 -5 -10 -19z"/>
<path d="M648 1010 c-3 -8 1 -25 9 -36 7 -12 16 -31 18 -44 8 -43 17 -60 33
-69 15 -8 17 -4 14 30 -3 23 -12 45 -22 52 -10 7 -25 28 -32 47 -10 24 -16 30
-20 20z"/>
<path d="M1110 981 c-21 -6 -22 -8 -7 -14 9 -3 17 -13 17 -22 0 -8 5 -15 10
-15 6 0 10 10 10 21 0 17 3 19 14 10 12 -10 13 -8 9 8 -6 22 -12 23 -53 12z"/>
<path d="M1797 979 c7 -7 15 -10 18 -7 3 3 -2 9 -12 12 -14 6 -15 5 -6 -5z"/>
<path d="M1792 953 c-6 -2 -9 -9 -6 -14 3 -6 1 -15 -4 -22 -5 -7 -8 -22 -7
-35 1 -14 -3 -21 -11 -18 -8 3 -10 -2 -6 -16 3 -14 1 -19 -6 -14 -8 5 -12 0
-12 -13 0 -12 -5 -21 -11 -21 -6 0 -9 -9 -6 -20 3 -11 0 -23 -5 -27 -7 -4 -8
-1 -4 8 4 8 0 5 -8 -5 -9 -11 -16 -15 -16 -8 0 13 -59 46 -67 38 -3 -3 2 -8
11 -12 9 -3 16 -12 16 -20 0 -8 5 -14 11 -14 5 0 7 6 4 13 -4 6 1 3 9 -7 12
-14 13 -23 5 -33 -6 -7 -8 -13 -5 -13 9 0 -41 -68 -71 -97 -13 -12 -23 -26
-23 -30 0 -4 -14 -21 -30 -37 -28 -27 -29 -28 -49 -10 -10 11 -21 33 -23 49
-4 34 -36 87 -48 80 -4 -2 -13 -25 -20 -50 -7 -25 -16 -48 -21 -50 -4 -3 -23
2 -43 11 -30 15 -33 20 -25 41 5 13 9 26 9 28 0 1 -16 5 -35 7 -19 2 -35 0
-35 -4 0 -4 -6 -8 -13 -8 -18 0 -49 -34 -40 -43 3 -4 2 -7 -3 -7 -6 0 -15 5
-21 11 -12 12 -60 -13 -76 -38 -4 -7 -14 -13 -21 -13 -8 0 -16 -9 -19 -19 -3
-14 -20 -22 -58 -30 -30 -6 -60 -15 -67 -20 -23 -14 -20 -64 5 -94 13 -16 23
-37 23 -47 0 -10 5 -20 12 -22 13 -5 84 8 134 23 38 11 117 12 110 1 -3 -5
-23 -14 -45 -22 -31 -10 -38 -16 -30 -26 8 -9 5 -11 -10 -7 -16 4 -21 1 -21
-13 0 -16 2 -17 10 -4 8 13 10 13 10 -2 0 -13 5 -15 28 -9 15 4 44 6 65 5 20
-1 37 2 37 8 0 5 4 7 9 4 4 -3 22 -1 40 4 27 7 31 6 31 -11 0 -27 21 -24 52 9
14 15 45 41 68 57 23 17 50 38 61 47 10 10 21 18 24 18 3 0 37 32 77 70 40 39
69 70 64 70 -5 0 -3 7 4 15 7 9 20 13 30 10 10 -3 17 0 17 9 0 9 -4 13 -9 10
-13 -8 -10 3 11 38 11 17 18 35 15 40 -3 4 -1 8 5 8 13 0 42 78 44 122 1 20 5
34 10 31 4 -2 7 6 8 19 0 13 2 33 5 46 2 12 -1 22 -7 22 -7 0 -7 6 2 17 11 13
11 15 1 9 -9 -6 -12 -3 -10 9 3 19 -9 27 -30 18z m-405 -679 c-3 -3 -12 -4
-19 -1 -8 3 -5 6 6 6 11 1 17 -2 13 -5z"/>
<path d="M965 920 c-4 -11 -33 -32 -71 -50 -35 -17 -64 -33 -64 -35 0 -18 26
-55 39 -56 17 -1 32 -4 69 -15 17 -5 22 -2 22 12 0 10 9 27 20 39 18 19 19 26
8 50 -10 23 -10 28 5 37 15 8 15 11 3 24 -19 19 -23 18 -31 -6z"/>
<path d="M600 913 c0 -5 15 -25 33 -45 17 -20 44 -52 58 -70 15 -18 41 -41 58
-51 30 -18 31 -18 31 2 0 19 -68 101 -84 101 -4 0 -24 16 -44 35 -36 34 -52
42 -52 28z"/>
<path d="M1080 840 l-35 -7 32 -2 c17 0 35 4 38 9 3 6 5 9 3 9 -2 -1 -19 -5
-38 -9z"/>
<path d="M1260 830 c-12 -7 -10 -11 10 -19 14 -5 19 -10 13 -10 -28 -2 -10
-18 32 -29 49 -13 78 -47 54 -64 -10 -7 -8 -8 8 -5 13 3 26 1 29 -4 9 -14 41
-10 48 6 7 19 20 19 38 2 16 -16 53 -37 66 -37 5 0 9 7 9 15 0 8 -3 12 -7 10
-10 -6 -52 40 -44 48 16 16 -57 62 -123 77 -35 8 -61 -9 -48 -31 5 -7 1 -10
-11 -7 -10 2 -25 16 -32 31 -14 29 -19 32 -42 17z"/>
<path d="M1025 789 c-4 -10 -2 -27 4 -36 10 -17 10 -17 11 0 0 11 10 27 22 37
l22 18 -27 0 c-17 0 -29 -7 -32 -19z"/>
<path d="M1563 783 c-16 -16 -18 -23 -8 -23 8 0 19 9 25 21 16 29 9 29 -17 2z"/>
<path d="M1056 772 c-3 -6 -1 -14 5 -17 14 -9 20 -2 10 14 -6 8 -11 9 -15 3z"/>
<path d="M799 706 c6 -8 32 -17 58 -21 25 -4 53 -9 62 -12 10 -4 7 2 -8 15
-16 15 -31 19 -51 16 -15 -4 -31 -1 -34 5 -4 6 -14 11 -23 11 -12 0 -13 -3 -4
-14z"/>
<path d="M1101 274 c0 -11 3 -14 6 -6 3 7 2 16 -1 19 -3 4 -6 -2 -5 -13z"/>
</g>
</svg>
